<?xml version="1.0" encoding="UTF-8"?>
<!DOCTYPE svg
PUBLIC "-//W3C//DTD SVG 1.1//EN"
       "http://www.w3.org/Graphics/SVG/1.1/DTD/svg11.dtd">
<svg viewBox="1 15 1263 1142" width="1262px" height="1127px" xmlns="http://www.w3.org/2000/svg" version="1.1">
   <line x1="739" y1="759" x2="729" y2="759" style="stroke:#b0b;stroke-width:1;"/>
   <line x1="569" y1="252" x2="559" y2="252" style="stroke:#b0b;stroke-width:1;"/>
   <line x1="729" y1="759" x2="569" y2="252" style="stroke:#b0b;stroke-width:1;"/>
   <line x1="731.5" y1="759" x2="735.03553390593" y2="762.53553390593" style="stroke:#b0b;stroke-width:2;"/>
   <line x1="731.5" y1="759" x2="735.03553390593" y2="755.46446609407" style="stroke:#b0b;stroke-width:2;"/>
   <line x1="564" y1="252" x2="567.53553390593" y2="255.53553390593" style="stroke:#b0b;stroke-width:2;"/>
   <line x1="564" y1="252" x2="567.53553390593" y2="248.46446609407" style="stroke:#b0b;stroke-width:2;"/>
   <line x1="421" y1="135" x2="431" y2="135" style="stroke:#0b0;stroke-width:1;"/>
   <line x1="770" y1="243" x2="780" y2="243" style="stroke:#0b0;stroke-width:1;"/>
   <line x1="431" y1="135" x2="770" y2="243" style="stroke:#0b0;stroke-width:1;"/>
   <line x1="428.5" y1="135" x2="424.96446609407" y2="138.53553390593" style="stroke:#0b0;stroke-width:2;"/>
   <line x1="428.5" y1="135" x2="424.96446609407" y2="131.46446609407" style="stroke:#0b0;stroke-width:2;"/>
   <line x1="775" y1="243" x2="771.46446609407" y2="246.53553390593" style="stroke:#0b0;stroke-width:2;"/>
   <line x1="775" y1="243" x2="771.46446609407" y2="239.46446609407" style="stroke:#0b0;stroke-width:2;"/>
   <line x1="421" y1="155" x2="431" y2="155" style="stroke:#b0b;stroke-width:1;"/>
   <line x1="463" y1="252" x2="473" y2="252" style="stroke:#b0b;stroke-width:1;"/>
   <line x1="431" y1="155" x2="463" y2="252" style="stroke:#b0b;stroke-width:1;"/>
   <line x1="428.5" y1="155" x2="424.96446609407" y2="158.53553390593" style="stroke:#b0b;stroke-width:2;"/>
   <line x1="428.5" y1="155" x2="424.96446609407" y2="151.46446609407" style="stroke:#b0b;stroke-width:2;"/>
   <line x1="468" y1="252" x2="464.46446609407" y2="255.53553390593" style="stroke:#b0b;stroke-width:2;"/>
   <line x1="468" y1="252" x2="464.46446609407" y2="248.46446609407" style="stroke:#b0b;stroke-width:2;"/>
   <line x1="253" y1="589" x2="243" y2="589" style="stroke:#cb0;stroke-width:1;"/>
   <line x1="243" y1="549" x2="253" y2="549" style="stroke:#cb0;stroke-width:1;"/>
   <line x1="243" y1="589" x2="243" y2="549" style="stroke:#cb0;stroke-width:1;"/>
   <line x1="245.5" y1="589" x2="249.03553390593" y2="592.53553390593" style="stroke:#cb0;stroke-width:2;"/>
   <line x1="245.5" y1="589" x2="249.03553390593" y2="585.46446609407" style="stroke:#cb0;stroke-width:2;"/>
   <line x1="248" y1="549" x2="244.46446609407" y2="552.53553390593" style="stroke:#cb0;stroke-width:2;"/>
   <line x1="248" y1="549" x2="244.46446609407" y2="545.46446609407" style="stroke:#cb0;stroke-width:2;"/>
   <line x1="991" y1="132" x2="981" y2="132" style="stroke:#cb0;stroke-width:1;"/>
   <line x1="879" y1="243" x2="869" y2="243" style="stroke:#cb0;stroke-width:1;"/>
   <line x1="981" y1="132" x2="879" y2="243" style="stroke:#cb0;stroke-width:1;"/>
   <line x1="983.5" y1="132" x2="987.03553390593" y2="135.53553390593" style="stroke:#cb0;stroke-width:2;"/>
   <line x1="983.5" y1="132" x2="987.03553390593" y2="128.46446609407" style="stroke:#cb0;stroke-width:2;"/>
   <line x1="874" y1="243" x2="877.53553390593" y2="246.53553390593" style="stroke:#cb0;stroke-width:2;"/>
   <line x1="874" y1="243" x2="877.53553390593" y2="239.46446609407" style="stroke:#cb0;stroke-width:2;"/>
   <line x1="991" y1="152" x2="981" y2="152" style="stroke:#bbb;stroke-width:1;"/>
   <line x1="569" y1="252" x2="559" y2="252" style="stroke:#bbb;stroke-width:1;"/>
   <line x1="981" y1="152" x2="569" y2="252" style="stroke:#bbb;stroke-width:1;"/>
   <line x1="983.5" y1="152" x2="987.03553390593" y2="155.53553390593" style="stroke:#bbb;stroke-width:2;"/>
   <line x1="983.5" y1="152" x2="987.03553390593" y2="148.46446609407" style="stroke:#bbb;stroke-width:2;"/>
   <line x1="564" y1="252" x2="567.53553390593" y2="255.53553390593" style="stroke:#bbb;stroke-width:2;"/>
   <line x1="564" y1="252" x2="567.53553390593" y2="248.46446609407" style="stroke:#bbb;stroke-width:2;"/>
   <line x1="991" y1="172" x2="981" y2="172" style="stroke:#333;stroke-width:1;"/>
   <line x1="981" y1="92" x2="991" y2="92" style="stroke:#333;stroke-width:1;"/>
   <line x1="981" y1="172" x2="981" y2="92" style="stroke:#333;stroke-width:1;"/>
   <line x1="983.5" y1="172" x2="987.03553390593" y2="175.53553390593" style="stroke:#333;stroke-width:2;"/>
   <line x1="983.5" y1="172" x2="987.03553390593" y2="168.46446609407" style="stroke:#333;stroke-width:2;"/>
   <line x1="986" y1="92" x2="982.46446609407" y2="95.535533905933" style="stroke:#333;stroke-width:2;"/>
   <line x1="986" y1="92" x2="982.46446609407" y2="88.464466094067" style="stroke:#333;stroke-width:2;"/>
   <line x1="257" y1="864" x2="267" y2="864" style="stroke:#c00;stroke-width:1;"/>
   <line x1="463" y1="252" x2="473" y2="252" style="stroke:#c00;stroke-width:1;"/>
   <line x1="267" y1="864" x2="463" y2="252" style="stroke:#c00;stroke-width:1;"/>
   <line x1="264.5" y1="864" x2="260.96446609407" y2="867.53553390593" style="stroke:#c00;stroke-width:2;"/>
   <line x1="264.5" y1="864" x2="260.96446609407" y2="860.46446609407" style="stroke:#c00;stroke-width:2;"/>
   <line x1="468" y1="252" x2="464.46446609407" y2="255.53553390593" style="stroke:#c00;stroke-width:2;"/>
   <line x1="468" y1="252" x2="464.46446609407" y2="248.46446609407" style="stroke:#c00;stroke-width:2;"/>
   <line x1="549" y1="857" x2="559" y2="857" style="stroke:#333;stroke-width:1;"/>
   <line x1="569" y1="252" x2="559" y2="252" style="stroke:#333;stroke-width:1;"/>
   <line x1="559" y1="857" x2="569" y2="252" style="stroke:#333;stroke-width:1;"/>
   <line x1="556.5" y1="857" x2="552.96446609407" y2="860.53553390593" style="stroke:#333;stroke-width:2;"/>
   <line x1="556.5" y1="857" x2="552.96446609407" y2="853.46446609407" style="stroke:#333;stroke-width:2;"/>
   <line x1="564" y1="252" x2="567.53553390593" y2="255.53553390593" style="stroke:#333;stroke-width:2;"/>
   <line x1="564" y1="252" x2="567.53553390593" y2="248.46446609407" style="stroke:#333;stroke-width:2;"/>
   <line x1="442" y1="1037" x2="432" y2="1037" style="stroke:#b0b;stroke-width:1;"/>
   <line x1="267" y1="844" x2="257" y2="844" style="stroke:#b0b;stroke-width:1;"/>
   <line x1="432" y1="1037" x2="267" y2="844" style="stroke:#b0b;stroke-width:1;"/>
   <line x1="434.5" y1="1037" x2="438.03553390593" y2="1040.5355339059" style="stroke:#b0b;stroke-width:2;"/>
   <line x1="434.5" y1="1037" x2="438.03553390593" y2="1033.4644660941" style="stroke:#b0b;stroke-width:2;"/>
   <line x1="262" y1="844" x2="265.53553390593" y2="847.53553390593" style="stroke:#b0b;stroke-width:2;"/>
   <line x1="262" y1="844" x2="265.53553390593" y2="840.46446609407" style="stroke:#b0b;stroke-width:2;"/>
   <line x1="1054" y1="814" x2="1044" y2="814" style="stroke:#0b0;stroke-width:1;"/>
   <line x1="879" y1="243" x2="869" y2="243" style="stroke:#0b0;stroke-width:1;"/>
   <line x1="1044" y1="814" x2="879" y2="243" style="stroke:#0b0;stroke-width:1;"/>
   <line x1="1046.5" y1="814" x2="1050.0355339059" y2="817.53553390593" style="stroke:#0b0;stroke-width:2;"/>
   <line x1="1046.5" y1="814" x2="1050.0355339059" y2="810.46446609407" style="stroke:#0b0;stroke-width:2;"/>
   <line x1="874" y1="243" x2="877.53553390593" y2="246.53553390593" style="stroke:#0b0;stroke-width:2;"/>
   <line x1="874" y1="243" x2="877.53553390593" y2="239.46446609407" style="stroke:#0b0;stroke-width:2;"/>
   <line x1="1054" y1="834" x2="1044" y2="834" style="stroke:#bbb;stroke-width:1;"/>
   <line x1="559" y1="837" x2="549" y2="837" style="stroke:#bbb;stroke-width:1;"/>
   <line x1="1044" y1="834" x2="559" y2="837" style="stroke:#bbb;stroke-width:1;"/>
   <line x1="1046.5" y1="834" x2="1050.0355339059" y2="837.53553390593" style="stroke:#bbb;stroke-width:2;"/>
   <line x1="1046.5" y1="834" x2="1050.0355339059" y2="830.46446609407" style="stroke:#bbb;stroke-width:2;"/>
   <line x1="554" y1="837" x2="557.53553390593" y2="840.53553390593" style="stroke:#bbb;stroke-width:2;"/>
   <line x1="554" y1="837" x2="557.53553390593" y2="833.46446609407" style="stroke:#bbb;stroke-width:2;"/>
   <line x1="780" y1="263" x2="770" y2="263" style="stroke:#bbb;stroke-width:1;"/>
   <line x1="351" y1="549" x2="341" y2="549" style="stroke:#bbb;stroke-width:1;"/>
   <line x1="770" y1="263" x2="351" y2="549" style="stroke:#bbb;stroke-width:1;"/>
   <line x1="772.5" y1="263" x2="776.03553390593" y2="266.53553390593" style="stroke:#bbb;stroke-width:2;"/>
   <line x1="772.5" y1="263" x2="776.03553390593" y2="259.46446609407" style="stroke:#bbb;stroke-width:2;"/>
   <line x1="346" y1="549" x2="349.53553390593" y2="552.53553390593" style="stroke:#bbb;stroke-width:2;"/>
   <line x1="346" y1="549" x2="349.53553390593" y2="545.46446609407" style="stroke:#bbb;stroke-width:2;"/>
   <line x1="780" y1="423" x2="770" y2="423" style="stroke:#c00;stroke-width:1;"/>
   <line x1="627" y1="634" x2="617" y2="634" style="stroke:#c00;stroke-width:1;"/>
   <line x1="770" y1="423" x2="627" y2="634" style="stroke:#c00;stroke-width:1;"/>
   <line x1="772.5" y1="423" x2="776.03553390593" y2="426.53553390593" style="stroke:#c00;stroke-width:2;"/>
   <line x1="772.5" y1="423" x2="776.03553390593" y2="419.46446609407" style="stroke:#c00;stroke-width:2;"/>
   <line x1="622" y1="634" x2="625.53553390593" y2="637.53553390593" style="stroke:#c00;stroke-width:2;"/>
   <line x1="622" y1="634" x2="625.53553390593" y2="630.46446609407" style="stroke:#c00;stroke-width:2;"/>
   <line x1="869" y1="403" x2="879" y2="403" style="stroke:#0b0;stroke-width:1;"/>
   <line x1="970" y1="502" x2="980" y2="502" style="stroke:#0b0;stroke-width:1;"/>
   <line x1="879" y1="403" x2="970" y2="502" style="stroke:#0b0;stroke-width:1;"/>
   <line x1="876.5" y1="403" x2="872.96446609407" y2="406.53553390593" style="stroke:#0b0;stroke-width:2;"/>
   <line x1="876.5" y1="403" x2="872.96446609407" y2="399.46446609407" style="stroke:#0b0;stroke-width:2;"/>
   <line x1="975" y1="502" x2="971.46446609407" y2="505.53553390593" style="stroke:#0b0;stroke-width:2;"/>
   <line x1="975" y1="502" x2="971.46446609407" y2="498.46446609407" style="stroke:#0b0;stroke-width:2;"/>
   <line x1="671" y1="80" x2="681" y2="80" style="stroke:#b0b;stroke-width:1;"/>
   <line x1="770" y1="243" x2="780" y2="243" style="stroke:#b0b;stroke-width:1;"/>
   <line x1="681" y1="80" x2="770" y2="243" style="stroke:#b0b;stroke-width:1;"/>
   <line x1="678.5" y1="80" x2="674.96446609407" y2="83.535533905933" style="stroke:#b0b;stroke-width:2;"/>
   <line x1="678.5" y1="80" x2="674.96446609407" y2="76.464466094067" style="stroke:#b0b;stroke-width:2;"/>
   <line x1="775" y1="243" x2="771.46446609407" y2="246.53553390593" style="stroke:#b0b;stroke-width:2;"/>
   <line x1="775" y1="243" x2="771.46446609407" y2="239.46446609407" style="stroke:#b0b;stroke-width:2;"/>
   <line x1="200" y1="226" x2="210" y2="226" style="stroke:#333;stroke-width:1;"/>
   <line x1="770" y1="243" x2="780" y2="243" style="stroke:#333;stroke-width:1;"/>
   <line x1="210" y1="226" x2="770" y2="243" style="stroke:#333;stroke-width:1;"/>
   <line x1="207.5" y1="226" x2="203.96446609407" y2="229.53553390593" style="stroke:#333;stroke-width:2;"/>
   <line x1="207.5" y1="226" x2="203.96446609407" y2="222.46446609407" style="stroke:#333;stroke-width:2;"/>
   <line x1="775" y1="243" x2="771.46446609407" y2="246.53553390593" style="stroke:#333;stroke-width:2;"/>
   <line x1="775" y1="243" x2="771.46446609407" y2="239.46446609407" style="stroke:#333;stroke-width:2;"/>
   <line x1="200" y1="246" x2="210" y2="246" style="stroke:#bbb;stroke-width:1;"/>
   <line x1="463" y1="252" x2="473" y2="252" style="stroke:#bbb;stroke-width:1;"/>
   <line x1="210" y1="246" x2="463" y2="252" style="stroke:#bbb;stroke-width:1;"/>
   <line x1="207.5" y1="246" x2="203.96446609407" y2="249.53553390593" style="stroke:#bbb;stroke-width:2;"/>
   <line x1="207.5" y1="246" x2="203.96446609407" y2="242.46446609407" style="stroke:#bbb;stroke-width:2;"/>
   <line x1="468" y1="252" x2="464.46446609407" y2="255.53553390593" style="stroke:#bbb;stroke-width:2;"/>
   <line x1="468" y1="252" x2="464.46446609407" y2="248.46446609407" style="stroke:#bbb;stroke-width:2;"/>
   <line x1="102" y1="564" x2="112" y2="564" style="stroke:#b0b;stroke-width:1;"/>
   <line x1="521" y1="634" x2="531" y2="634" style="stroke:#b0b;stroke-width:1;"/>
   <line x1="112" y1="564" x2="521" y2="634" style="stroke:#b0b;stroke-width:1;"/>
   <line x1="109.5" y1="564" x2="105.96446609407" y2="567.53553390593" style="stroke:#b0b;stroke-width:2;"/>
   <line x1="109.5" y1="564" x2="105.96446609407" y2="560.46446609407" style="stroke:#b0b;stroke-width:2;"/>
   <line x1="526" y1="634" x2="522.46446609407" y2="637.53553390593" style="stroke:#b0b;stroke-width:2;"/>
   <line x1="526" y1="634" x2="522.46446609407" y2="630.46446609407" style="stroke:#b0b;stroke-width:2;"/>
   <line x1="1003" y1="344" x2="993" y2="344" style="stroke:#333;stroke-width:1;"/>
   <line x1="879" y1="243" x2="869" y2="243" style="stroke:#333;stroke-width:1;"/>
   <line x1="993" y1="344" x2="879" y2="243" style="stroke:#333;stroke-width:1;"/>
   <line x1="995.5" y1="344" x2="999.03553390593" y2="347.53553390593" style="stroke:#333;stroke-width:2;"/>
   <line x1="995.5" y1="344" x2="999.03553390593" y2="340.46446609407" style="stroke:#333;stroke-width:2;"/>
   <line x1="874" y1="243" x2="877.53553390593" y2="246.53553390593" style="stroke:#333;stroke-width:2;"/>
   <line x1="874" y1="243" x2="877.53553390593" y2="239.46446609407" style="stroke:#333;stroke-width:2;"/>
   <line x1="1003" y1="364" x2="993" y2="364" style="stroke:#b0b;stroke-width:1;"/>
   <line x1="569" y1="252" x2="559" y2="252" style="stroke:#b0b;stroke-width:1;"/>
   <line x1="993" y1="364" x2="569" y2="252" style="stroke:#b0b;stroke-width:1;"/>
   <line x1="995.5" y1="364" x2="999.03553390593" y2="367.53553390593" style="stroke:#b0b;stroke-width:2;"/>
   <line x1="995.5" y1="364" x2="999.03553390593" y2="360.46446609407" style="stroke:#b0b;stroke-width:2;"/>
   <line x1="564" y1="252" x2="567.53553390593" y2="255.53553390593" style="stroke:#b0b;stroke-width:2;"/>
   <line x1="564" y1="252" x2="567.53553390593" y2="248.46446609407" style="stroke:#b0b;stroke-width:2;"/>
   <rect width="70" height="20" x="739" y="649" style="fill:#007;stroke:black;"/>
   <text width="70" height="20" x="744" y="663" style="fill:#fff;" font-family="Arial" font-size="16px"> address</text>
   <rect width="70" height="20" x="739" y="669" style="fill:#aea;stroke:black;"/>
   <text width="70" height="20" x="744" y="683" style="fill:black;" font-family="Arial" font-size="16px">id</text>
   <rect width="70" height="20" x="739" y="689" style="fill:none;stroke:black;"/>
   <text width="70" height="20" x="744" y="703" style="fill:black;" font-family="Arial" font-size="16px">province</text>
   <rect width="70" height="20" x="739" y="709" style="fill:none;stroke:black;"/>
   <text width="70" height="20" x="744" y="723" style="fill:black;" font-family="Arial" font-size="16px">city</text>
   <rect width="70" height="20" x="739" y="729" style="fill:none;stroke:black;"/>
   <text width="70" height="20" x="744" y="743" style="fill:black;" font-family="Arial" font-size="16px">value</text>
   <rect width="70" height="20" x="739" y="749" style="fill:none;stroke:black;"/>
   <text width="70" height="20" x="744" y="763" style="fill:black;" font-family="Arial" font-size="16px">user_id</text>
   <rect width="86" height="20" x="335" y="85" style="fill:#007;stroke:black;"/>
   <text width="86" height="20" x="340" y="99" style="fill:#fff;" font-family="Arial" font-size="16px"> cart</text>
   <rect width="86" height="20" x="335" y="105" style="fill:#aea;stroke:black;"/>
   <text width="86" height="20" x="340" y="119" style="fill:black;" font-family="Arial" font-size="16px">id</text>
   <rect width="86" height="20" x="335" y="125" style="fill:none;stroke:black;"/>
   <text width="86" height="20" x="340" y="139" style="fill:black;" font-family="Arial" font-size="16px">product_id</text>
   <rect width="86" height="20" x="335" y="145" style="fill:none;stroke:black;"/>
   <text width="86" height="20" x="340" y="159" style="fill:black;" font-family="Arial" font-size="16px">user_id</text>
   <rect width="86" height="20" x="335" y="165" style="fill:none;stroke:black;"/>
   <text width="86" height="20" x="340" y="179" style="fill:black;" font-family="Arial" font-size="16px">qty</text>
   <rect width="86" height="20" x="335" y="185" style="fill:none;stroke:black;"/>
   <text width="86" height="20" x="340" y="199" style="fill:black;" font-family="Arial" font-size="16px">cost</text>
   <rect width="86" height="20" x="335" y="205" style="fill:none;stroke:black;"/>
   <text width="86" height="20" x="340" y="219" style="fill:black;" font-family="Arial" font-size="16px">created_at</text>
   <rect width="86" height="20" x="335" y="225" style="fill:none;stroke:black;"/>
   <text width="86" height="20" x="340" y="239" style="fill:black;" font-family="Arial" font-size="16px">updated_at</text>
   <rect width="86" height="20" x="335" y="245" style="fill:none;stroke:black;"/>
   <text width="86" height="20" x="340" y="259" style="fill:black;" font-family="Arial" font-size="16px">deleted_at</text>
   <rect width="88" height="20" x="253" y="519" style="fill:#007;stroke:black;"/>
   <text width="88" height="20" x="258" y="533" style="fill:#fff;" font-family="Arial" font-size="16px"> category</text>
   <rect width="88" height="20" x="253" y="539" style="fill:#aea;stroke:black;"/>
   <text width="88" height="20" x="258" y="553" style="fill:black;" font-family="Arial" font-size="16px">id</text>
   <rect width="88" height="20" x="253" y="559" style="fill:none;stroke:black;"/>
   <text width="88" height="20" x="258" y="573" style="fill:black;" font-family="Arial" font-size="16px">title</text>
   <rect width="88" height="20" x="253" y="579" style="fill:none;stroke:black;"/>
   <text width="88" height="20" x="258" y="593" style="fill:black;" font-family="Arial" font-size="16px">parent_id</text>
   <rect width="88" height="20" x="253" y="599" style="fill:none;stroke:black;"/>
   <text width="88" height="20" x="258" y="613" style="fill:black;" font-family="Arial" font-size="16px">created_at</text>
   <rect width="88" height="20" x="253" y="619" style="fill:none;stroke:black;"/>
   <text width="88" height="20" x="258" y="633" style="fill:black;" font-family="Arial" font-size="16px">description</text>
   <rect width="88" height="20" x="253" y="639" style="fill:none;stroke:black;"/>
   <text width="88" height="20" x="258" y="653" style="fill:black;" font-family="Arial" font-size="16px">updated_at</text>
   <rect width="88" height="20" x="253" y="659" style="fill:none;stroke:black;"/>
   <text width="88" height="20" x="258" y="673" style="fill:black;" font-family="Arial" font-size="16px">deleted_at</text>
   <rect width="81" height="20" x="991" y="62" style="fill:#007;stroke:black;"/>
   <text width="81" height="20" x="996" y="76" style="fill:#fff;" font-family="Arial" font-size="16px"> comments</text>
   <rect width="81" height="20" x="991" y="82" style="fill:#aea;stroke:black;"/>
   <text width="81" height="20" x="996" y="96" style="fill:black;" font-family="Arial" font-size="16px">id</text>
   <rect width="81" height="20" x="991" y="102" style="fill:none;stroke:black;"/>
   <text width="81" height="20" x="996" y="116" style="fill:black;" font-family="Arial" font-size="16px">value</text>
   <rect width="81" height="20" x="991" y="122" style="fill:none;stroke:black;"/>
   <text width="81" height="20" x="996" y="136" style="fill:black;" font-family="Arial" font-size="16px">product_id</text>
   <rect width="81" height="20" x="991" y="142" style="fill:none;stroke:black;"/>
   <text width="81" height="20" x="996" y="156" style="fill:black;" font-family="Arial" font-size="16px">user_id</text>
   <rect width="81" height="20" x="991" y="162" style="fill:none;stroke:black;"/>
   <text width="81" height="20" x="996" y="176" style="fill:black;" font-family="Arial" font-size="16px">reply_id</text>
   <rect width="86" height="20" x="171" y="814" style="fill:#007;stroke:black;"/>
   <text width="86" height="20" x="176" y="828" style="fill:#fff;" font-family="Arial" font-size="16px"> coupons</text>
   <rect width="86" height="20" x="171" y="834" style="fill:#aea;stroke:black;"/>
   <text width="86" height="20" x="176" y="848" style="fill:black;" font-family="Arial" font-size="16px">id</text>
   <rect width="86" height="20" x="171" y="854" style="fill:none;stroke:black;"/>
   <text width="86" height="20" x="176" y="868" style="fill:black;" font-family="Arial" font-size="16px">user_id</text>
   <rect width="86" height="20" x="171" y="874" style="fill:none;stroke:black;"/>
   <text width="86" height="20" x="176" y="888" style="fill:black;" font-family="Arial" font-size="16px">code</text>
   <rect width="86" height="20" x="171" y="894" style="fill:none;stroke:black;"/>
   <text width="86" height="20" x="176" y="908" style="fill:black;" font-family="Arial" font-size="16px">value</text>
   <rect width="86" height="20" x="171" y="914" style="fill:none;stroke:black;"/>
   <text width="86" height="20" x="176" y="928" style="fill:black;" font-family="Arial" font-size="16px">status</text>
   <rect width="86" height="20" x="171" y="934" style="fill:none;stroke:black;"/>
   <text width="86" height="20" x="176" y="948" style="fill:black;" font-family="Arial" font-size="16px">created_at</text>
   <rect width="86" height="20" x="171" y="954" style="fill:none;stroke:black;"/>
   <text width="86" height="20" x="176" y="968" style="fill:black;" font-family="Arial" font-size="16px">updated_at</text>
   <rect width="128" height="20" x="980" y="472" style="fill:#007;stroke:black;"/>
   <text width="128" height="20" x="985" y="486" style="fill:#fff;" font-family="Arial" font-size="16px"> discount</text>
   <rect width="128" height="20" x="980" y="492" style="fill:#aea;stroke:black;"/>
   <text width="128" height="20" x="985" y="506" style="fill:black;" font-family="Arial" font-size="16px">id</text>
   <rect width="128" height="20" x="980" y="512" style="fill:none;stroke:black;"/>
   <text width="128" height="20" x="985" y="526" style="fill:black;" font-family="Arial" font-size="16px">name</text>
   <rect width="128" height="20" x="980" y="532" style="fill:none;stroke:black;"/>
   <text width="128" height="20" x="985" y="546" style="fill:black;" font-family="Arial" font-size="16px">desc</text>
   <rect width="128" height="20" x="980" y="552" style="fill:none;stroke:black;"/>
   <text width="128" height="20" x="985" y="566" style="fill:black;" font-family="Arial" font-size="16px">discount_percent</text>
   <rect width="128" height="20" x="980" y="572" style="fill:none;stroke:black;"/>
   <text width="128" height="20" x="985" y="586" style="fill:black;" font-family="Arial" font-size="16px">active</text>
   <rect width="128" height="20" x="980" y="592" style="fill:none;stroke:black;"/>
   <text width="128" height="20" x="985" y="606" style="fill:black;" font-family="Arial" font-size="16px">created_at</text>
   <rect width="128" height="20" x="980" y="612" style="fill:none;stroke:black;"/>
   <text width="128" height="20" x="985" y="626" style="fill:black;" font-family="Arial" font-size="16px">updated_at</text>
   <rect width="107" height="20" x="442" y="807" style="fill:#007;stroke:black;"/>
   <text width="107" height="20" x="447" y="821" style="fill:#fff;" font-family="Arial" font-size="16px"> orders</text>
   <rect width="107" height="20" x="442" y="827" style="fill:#aea;stroke:black;"/>
   <text width="107" height="20" x="447" y="841" style="fill:black;" font-family="Arial" font-size="16px">id</text>
   <rect width="107" height="20" x="442" y="847" style="fill:none;stroke:black;"/>
   <text width="107" height="20" x="447" y="861" style="fill:black;" font-family="Arial" font-size="16px">user_id</text>
   <rect width="107" height="20" x="442" y="867" style="fill:none;stroke:black;"/>
   <text width="107" height="20" x="447" y="881" style="fill:black;" font-family="Arial" font-size="16px">order_number</text>
   <rect width="107" height="20" x="442" y="887" style="fill:none;stroke:black;"/>
   <text width="107" height="20" x="447" y="901" style="fill:black;" font-family="Arial" font-size="16px">phone</text>
   <rect width="107" height="20" x="442" y="907" style="fill:none;stroke:black;"/>
   <text width="107" height="20" x="447" y="921" style="fill:black;" font-family="Arial" font-size="16px">address</text>
   <rect width="107" height="20" x="442" y="927" style="fill:none;stroke:black;"/>
   <text width="107" height="20" x="447" y="941" style="fill:black;" font-family="Arial" font-size="16px">postCode</text>
   <rect width="107" height="20" x="442" y="947" style="fill:none;stroke:black;"/>
   <text width="107" height="20" x="447" y="961" style="fill:black;" font-family="Arial" font-size="16px">email</text>
   <rect width="107" height="20" x="442" y="967" style="fill:none;stroke:black;"/>
   <text width="107" height="20" x="447" y="981" style="fill:black;" font-family="Arial" font-size="16px">totalCost</text>
   <rect width="107" height="20" x="442" y="987" style="fill:none;stroke:black;"/>
   <text width="107" height="20" x="447" y="1001" style="fill:black;" font-family="Arial" font-size="16px">totalqty</text>
   <rect width="107" height="20" x="442" y="1007" style="fill:none;stroke:black;"/>
   <text width="107" height="20" x="447" y="1021" style="fill:black;" font-family="Arial" font-size="16px">payment_id</text>
   <rect width="107" height="20" x="442" y="1027" style="fill:none;stroke:black;"/>
   <text width="107" height="20" x="447" y="1041" style="fill:black;" font-family="Arial" font-size="16px">coupon_id</text>
   <rect width="107" height="20" x="442" y="1047" style="fill:none;stroke:black;"/>
   <text width="107" height="20" x="447" y="1061" style="fill:black;" font-family="Arial" font-size="16px">status</text>
   <rect width="107" height="20" x="442" y="1067" style="fill:none;stroke:black;"/>
   <text width="107" height="20" x="447" y="1081" style="fill:black;" font-family="Arial" font-size="16px">created_at</text>
   <rect width="107" height="20" x="442" y="1087" style="fill:none;stroke:black;"/>
   <text width="107" height="20" x="447" y="1101" style="fill:black;" font-family="Arial" font-size="16px">updated_at</text>
   <rect width="107" height="20" x="442" y="1107" style="fill:none;stroke:black;"/>
   <text width="107" height="20" x="447" y="1121" style="fill:black;" font-family="Arial" font-size="16px">deleted_at</text>
   <rect width="86" height="20" x="1054" y="764" style="fill:#007;stroke:black;"/>
   <text width="86" height="20" x="1059" y="778" style="fill:#fff;" font-family="Arial" font-size="16px"> order_items</text>
   <rect width="86" height="20" x="1054" y="784" style="fill:#aea;stroke:black;"/>
   <text width="86" height="20" x="1059" y="798" style="fill:black;" font-family="Arial" font-size="16px">id</text>
   <rect width="86" height="20" x="1054" y="804" style="fill:none;stroke:black;"/>
   <text width="86" height="20" x="1059" y="818" style="fill:black;" font-family="Arial" font-size="16px">product_id</text>
   <rect width="86" height="20" x="1054" y="824" style="fill:none;stroke:black;"/>
   <text width="86" height="20" x="1059" y="838" style="fill:black;" font-family="Arial" font-size="16px">order_id</text>
   <rect width="86" height="20" x="1054" y="844" style="fill:none;stroke:black;"/>
   <text width="86" height="20" x="1059" y="858" style="fill:black;" font-family="Arial" font-size="16px">qty</text>
   <rect width="86" height="20" x="1054" y="864" style="fill:none;stroke:black;"/>
   <text width="86" height="20" x="1059" y="878" style="fill:black;" font-family="Arial" font-size="16px">created_at</text>
   <rect width="86" height="20" x="1054" y="884" style="fill:none;stroke:black;"/>
   <text width="86" height="20" x="1059" y="898" style="fill:black;" font-family="Arial" font-size="16px">updated_at</text>
   <rect width="89" height="20" x="780" y="213" style="fill:#007;stroke:black;"/>
   <text width="89" height="20" x="785" y="227" style="fill:#fff;" font-family="Arial" font-size="16px"> products</text>
   <rect width="89" height="20" x="780" y="233" style="fill:#aea;stroke:black;"/>
   <text width="89" height="20" x="785" y="247" style="fill:black;" font-family="Arial" font-size="16px">id</text>
   <rect width="89" height="20" x="780" y="253" style="fill:none;stroke:black;"/>
   <text width="89" height="20" x="785" y="267" style="fill:black;" font-family="Arial" font-size="16px">category_id</text>
   <rect width="89" height="20" x="780" y="273" style="fill:none;stroke:black;"/>
   <text width="89" height="20" x="785" y="287" style="fill:black;" font-family="Arial" font-size="16px">sku</text>
   <rect width="89" height="20" x="780" y="293" style="fill:none;stroke:black;"/>
   <text width="89" height="20" x="785" y="307" style="fill:black;" font-family="Arial" font-size="16px">title</text>
   <rect width="89" height="20" x="780" y="313" style="fill:none;stroke:black;"/>
   <text width="89" height="20" x="785" y="327" style="fill:black;" font-family="Arial" font-size="16px">photo</text>
   <rect width="89" height="20" x="780" y="333" style="fill:none;stroke:black;"/>
   <text width="89" height="20" x="785" y="347" style="fill:black;" font-family="Arial" font-size="16px">quantity</text>
   <rect width="89" height="20" x="780" y="353" style="fill:none;stroke:black;"/>
   <text width="89" height="20" x="785" y="367" style="fill:black;" font-family="Arial" font-size="16px">description</text>
   <rect width="89" height="20" x="780" y="373" style="fill:none;stroke:black;"/>
   <text width="89" height="20" x="785" y="387" style="fill:black;" font-family="Arial" font-size="16px">price</text>
   <rect width="89" height="20" x="780" y="393" style="fill:none;stroke:black;"/>
   <text width="89" height="20" x="785" y="407" style="fill:black;" font-family="Arial" font-size="16px">discount_id</text>
   <rect width="89" height="20" x="780" y="413" style="fill:none;stroke:black;"/>
   <text width="89" height="20" x="785" y="427" style="fill:black;" font-family="Arial" font-size="16px">store_id</text>
   <rect width="89" height="20" x="780" y="433" style="fill:none;stroke:black;"/>
   <text width="89" height="20" x="785" y="447" style="fill:black;" font-family="Arial" font-size="16px">created_at</text>
   <rect width="89" height="20" x="780" y="453" style="fill:none;stroke:black;"/>
   <text width="89" height="20" x="785" y="467" style="fill:black;" font-family="Arial" font-size="16px">updated_at</text>
   <rect width="89" height="20" x="780" y="473" style="fill:none;stroke:black;"/>
   <text width="89" height="20" x="785" y="487" style="fill:black;" font-family="Arial" font-size="16px">deleted_at</text>
   <rect width="130" height="20" x="541" y="30" style="fill:#007;stroke:black;"/>
   <text width="130" height="20" x="546" y="44" style="fill:#fff;" font-family="Arial" font-size="16px"> product_attributes</text>
   <rect width="130" height="20" x="541" y="50" style="fill:#aea;stroke:black;"/>
   <text width="130" height="20" x="546" y="64" style="fill:black;" font-family="Arial" font-size="16px">id</text>
   <rect width="130" height="20" x="541" y="70" style="fill:none;stroke:black;"/>
   <text width="130" height="20" x="546" y="84" style="fill:black;" font-family="Arial" font-size="16px">product_id</text>
   <rect width="130" height="20" x="541" y="90" style="fill:none;stroke:black;"/>
   <text width="130" height="20" x="546" y="104" style="fill:black;" font-family="Arial" font-size="16px">name</text>
   <rect width="130" height="20" x="541" y="110" style="fill:none;stroke:black;"/>
   <text width="130" height="20" x="546" y="124" style="fill:black;" font-family="Arial" font-size="16px">value</text>
   <rect width="121" height="20" x="79" y="176" style="fill:#007;stroke:black;"/>
   <text width="121" height="20" x="84" y="190" style="fill:#fff;" font-family="Arial" font-size="16px"> product_reviews</text>
   <rect width="121" height="20" x="79" y="196" style="fill:#aea;stroke:black;"/>
   <text width="121" height="20" x="84" y="210" style="fill:black;" font-family="Arial" font-size="16px">id</text>
   <rect width="121" height="20" x="79" y="216" style="fill:none;stroke:black;"/>
   <text width="121" height="20" x="84" y="230" style="fill:black;" font-family="Arial" font-size="16px">product_id</text>
   <rect width="121" height="20" x="79" y="236" style="fill:none;stroke:black;"/>
   <text width="121" height="20" x="84" y="250" style="fill:black;" font-family="Arial" font-size="16px">user_id</text>
   <rect width="121" height="20" x="79" y="256" style="fill:none;stroke:black;"/>
   <text width="121" height="20" x="84" y="270" style="fill:black;" font-family="Arial" font-size="16px">rate</text>
   <rect width="121" height="20" x="79" y="276" style="fill:none;stroke:black;"/>
   <text width="121" height="20" x="84" y="290" style="fill:black;" font-family="Arial" font-size="16px">review</text>
   <rect width="121" height="20" x="79" y="296" style="fill:none;stroke:black;"/>
   <text width="121" height="20" x="84" y="310" style="fill:black;" font-family="Arial" font-size="16px">status</text>
   <rect width="121" height="20" x="79" y="316" style="fill:none;stroke:black;"/>
   <text width="121" height="20" x="84" y="330" style="fill:black;" font-family="Arial" font-size="16px">created_at</text>
   <rect width="121" height="20" x="79" y="336" style="fill:none;stroke:black;"/>
   <text width="121" height="20" x="84" y="350" style="fill:black;" font-family="Arial" font-size="16px">updated_at</text>
   <rect width="73" height="20" x="1175" y="56" style="fill:#007;stroke:black;"/>
   <text width="73" height="20" x="1180" y="70" style="fill:#fff;" font-family="Arial" font-size="16px"> province</text>
   <rect width="73" height="20" x="1175" y="76" style="fill:#aea;stroke:black;"/>
   <text width="73" height="20" x="1180" y="90" style="fill:black;" font-family="Arial" font-size="16px">id</text>
   <rect width="73" height="20" x="1175" y="96" style="fill:none;stroke:black;"/>
   <text width="73" height="20" x="1180" y="110" style="fill:black;" font-family="Arial" font-size="16px">name</text>
   <rect width="73" height="20" x="1175" y="116" style="fill:none;stroke:black;"/>
   <text width="73" height="20" x="1180" y="130" style="fill:black;" font-family="Arial" font-size="16px">is_parent</text>
   <rect width="73" height="20" x="1175" y="136" style="fill:none;stroke:black;"/>
   <text width="73" height="20" x="1180" y="150" style="fill:black;" font-family="Arial" font-size="16px">parent_id</text>
   <rect width="86" height="20" x="531" y="604" style="fill:#007;stroke:black;"/>
   <text width="86" height="20" x="536" y="618" style="fill:#fff;" font-family="Arial" font-size="16px"> store</text>
   <rect width="86" height="20" x="531" y="624" style="fill:#aea;stroke:black;"/>
   <text width="86" height="20" x="536" y="638" style="fill:black;" font-family="Arial" font-size="16px">id</text>
   <rect width="86" height="20" x="531" y="644" style="fill:none;stroke:black;"/>
   <text width="86" height="20" x="536" y="658" style="fill:black;" font-family="Arial" font-size="16px">name</text>
   <rect width="86" height="20" x="531" y="664" style="fill:none;stroke:black;"/>
   <text width="86" height="20" x="536" y="678" style="fill:black;" font-family="Arial" font-size="16px">created_at</text>
   <rect width="86" height="20" x="531" y="684" style="fill:none;stroke:black;"/>
   <text width="86" height="20" x="536" y="698" style="fill:black;" font-family="Arial" font-size="16px">updated_at</text>
   <rect width="86" height="20" x="531" y="704" style="fill:none;stroke:black;"/>
   <text width="86" height="20" x="536" y="718" style="fill:black;" font-family="Arial" font-size="16px">deleted_at</text>
   <rect width="86" height="20" x="16" y="454" style="fill:#007;stroke:black;"/>
   <text width="86" height="20" x="21" y="468" style="fill:#fff;" font-family="Arial" font-size="16px"> store_users</text>
   <rect width="86" height="20" x="16" y="474" style="fill:#aea;stroke:black;"/>
   <text width="86" height="20" x="21" y="488" style="fill:black;" font-family="Arial" font-size="16px">id</text>
   <rect width="86" height="20" x="16" y="494" style="fill:none;stroke:black;"/>
   <text width="86" height="20" x="21" y="508" style="fill:black;" font-family="Arial" font-size="16px">first_name</text>
   <rect width="86" height="20" x="16" y="514" style="fill:none;stroke:black;"/>
   <text width="86" height="20" x="21" y="528" style="fill:black;" font-family="Arial" font-size="16px">last_name</text>
   <rect width="86" height="20" x="16" y="534" style="fill:none;stroke:black;"/>
   <text width="86" height="20" x="21" y="548" style="fill:black;" font-family="Arial" font-size="16px">role</text>
   <rect width="86" height="20" x="16" y="554" style="fill:none;stroke:black;"/>
   <text width="86" height="20" x="21" y="568" style="fill:black;" font-family="Arial" font-size="16px">store_id</text>
   <rect width="86" height="20" x="16" y="574" style="fill:none;stroke:black;"/>
   <text width="86" height="20" x="21" y="588" style="fill:black;" font-family="Arial" font-size="16px">phone</text>
   <rect width="86" height="20" x="16" y="594" style="fill:none;stroke:black;"/>
   <text width="86" height="20" x="21" y="608" style="fill:black;" font-family="Arial" font-size="16px">email</text>
   <rect width="86" height="20" x="16" y="614" style="fill:none;stroke:black;"/>
   <text width="86" height="20" x="21" y="628" style="fill:black;" font-family="Arial" font-size="16px">created_at</text>
   <rect width="86" height="20" x="16" y="634" style="fill:none;stroke:black;"/>
   <text width="86" height="20" x="21" y="648" style="fill:black;" font-family="Arial" font-size="16px">updated_at</text>
   <rect width="86" height="20" x="473" y="222" style="fill:#007;stroke:black;"/>
   <text width="86" height="20" x="478" y="236" style="fill:#fff;" font-family="Arial" font-size="16px"> users</text>
   <rect width="86" height="20" x="473" y="242" style="fill:#aea;stroke:black;"/>
   <text width="86" height="20" x="478" y="256" style="fill:black;" font-family="Arial" font-size="16px">id</text>
   <rect width="86" height="20" x="473" y="262" style="fill:none;stroke:black;"/>
   <text width="86" height="20" x="478" y="276" style="fill:black;" font-family="Arial" font-size="16px">username</text>
   <rect width="86" height="20" x="473" y="282" style="fill:none;stroke:black;"/>
   <text width="86" height="20" x="478" y="296" style="fill:black;" font-family="Arial" font-size="16px">First_name</text>
   <rect width="86" height="20" x="473" y="302" style="fill:none;stroke:black;"/>
   <text width="86" height="20" x="478" y="316" style="fill:black;" font-family="Arial" font-size="16px">Last_name</text>
   <rect width="86" height="20" x="473" y="322" style="fill:none;stroke:black;"/>
   <text width="86" height="20" x="478" y="336" style="fill:black;" font-family="Arial" font-size="16px">role</text>
   <rect width="86" height="20" x="473" y="342" style="fill:none;stroke:black;"/>
   <text width="86" height="20" x="478" y="356" style="fill:black;" font-family="Arial" font-size="16px">email</text>
   <rect width="86" height="20" x="473" y="362" style="fill:none;stroke:black;"/>
   <text width="86" height="20" x="478" y="376" style="fill:black;" font-family="Arial" font-size="16px">phone</text>
   <rect width="86" height="20" x="473" y="382" style="fill:none;stroke:black;"/>
   <text width="86" height="20" x="478" y="396" style="fill:black;" font-family="Arial" font-size="16px">password</text>
   <rect width="86" height="20" x="473" y="402" style="fill:none;stroke:black;"/>
   <text width="86" height="20" x="478" y="416" style="fill:black;" font-family="Arial" font-size="16px">created_at</text>
   <rect width="86" height="20" x="473" y="422" style="fill:none;stroke:black;"/>
   <text width="86" height="20" x="478" y="436" style="fill:black;" font-family="Arial" font-size="16px">updated_at</text>
   <rect width="86" height="20" x="473" y="442" style="fill:none;stroke:black;"/>
   <text width="86" height="20" x="478" y="456" style="fill:black;" font-family="Arial" font-size="16px">deleted_at</text>
   <rect width="86" height="20" x="1003" y="294" style="fill:#007;stroke:black;"/>
   <text width="86" height="20" x="1008" y="308" style="fill:#fff;" font-family="Arial" font-size="16px"> wishlists</text>
   <rect width="86" height="20" x="1003" y="314" style="fill:#aea;stroke:black;"/>
   <text width="86" height="20" x="1008" y="328" style="fill:black;" font-family="Arial" font-size="16px">id</text>
   <rect width="86" height="20" x="1003" y="334" style="fill:none;stroke:black;"/>
   <text width="86" height="20" x="1008" y="348" style="fill:black;" font-family="Arial" font-size="16px">product_id</text>
   <rect width="86" height="20" x="1003" y="354" style="fill:none;stroke:black;"/>
   <text width="86" height="20" x="1008" y="368" style="fill:black;" font-family="Arial" font-size="16px">user_id</text>
   <rect width="86" height="20" x="1003" y="374" style="fill:none;stroke:black;"/>
   <text width="86" height="20" x="1008" y="388" style="fill:black;" font-family="Arial" font-size="16px">created_at</text>
   <rect width="86" height="20" x="1003" y="394" style="fill:none;stroke:black;"/>
   <text width="86" height="20" x="1008" y="408" style="fill:black;" font-family="Arial" font-size="16px">updated_at</text>
</svg>
